<svg id="calendar-Bold" xmlns="http://www.w3.org/2000/svg" width="36" height="36" viewBox="0 0 36 36">
  <rect id="Path" width="36" height="36" fill="rgba(255,255,255,0)"/>
  <path id="calendar-Bold_1_" d="M419.5,1965.5a1.5,1.5,0,0,0-3,0h-9a1.5,1.5,0,0,0-3,0,7.509,7.509,0,0,0-7.5,7.5v13.5a7.509,7.509,0,0,0,7.5,7.5h15a7.509,7.509,0,0,0,7.5-7.5V1973A7.509,7.509,0,0,0,419.5,1965.5Zm-15,3v1.5a1.5,1.5,0,0,0,3,0v-1.5h9v1.5a1.5,1.5,0,0,0,3,0v-1.5a4.506,4.506,0,0,1,4.5,4.5H400A4.506,4.506,0,0,1,404.5,1968.5Zm15,22.5h-15a4.506,4.506,0,0,1-4.5-4.5V1976h24v10.5A4.506,4.506,0,0,1,419.5,1991Zm0-10.5a1.5,1.5,0,1,1-1.5-1.5A1.5,1.5,0,0,1,419.5,1980.5Zm-6,0a1.5,1.5,0,1,1-1.5-1.5A1.5,1.5,0,0,1,413.5,1980.5Zm-6,0a1.5,1.5,0,1,1-1.5-1.5A1.5,1.5,0,0,1,407.5,1980.5Zm12,6a1.5,1.5,0,1,1-1.5-1.5A1.5,1.5,0,0,1,419.5,1986.5Zm-6,0a1.5,1.5,0,1,1-1.5-1.5A1.5,1.5,0,0,1,413.5,1986.5Zm-6,0a1.5,1.5,0,1,1-1.5-1.5A1.5,1.5,0,0,1,407.5,1986.5Z" transform="translate(-394 -1961)" fill="#fff"/>
</svg>
